# xmcd
#
# Track frame offsets: 
#        150
#        21148
#        49323
#        76651
#        97379
#        123424
#        145796
#        173943
#        197222
#
# Disc length: 2984 seconds
#
# Revision: 0
# Processed by: cddbd v1.5.2PL0 Copyright (c) Steve Scherf et al.
# Submitted via: ExactAudioCopy v1.0b4
#
DISCID=7b0ba609
DTITLE=Storm Warning - Strategy
DYEAR=2011
DGENRE=Blues Rock
TTITLE0=Lonely Guy
TTITLE1=Parallel Lives
TTITLE2=What Have You Done (To Me)
TTITLE3=Misspent Youth
TTITLE4=Chocolates and Roses
TTITLE5=Cold Hearted Woman
TTITLE6=Gonna Miss You
TTITLE7=The Chester Stroll
TTITLE8=Break Free
EXTD=
EXTT0=
EXTT1=
EXTT2=
EXTT3=
EXTT4=
EXTT5=
EXTT6=
EXTT7=
EXTT8=
PLAYORDER=
